<?xml version="1.0" encoding="UTF-8" standalone="no"?>
<svg
   xmlns:dc="http://purl.org/dc/elements/1.1/"
   xmlns:cc="http://creativecommons.org/ns#"
   xmlns:rdf="http://www.w3.org/1999/02/22-rdf-syntax-ns#"
   xmlns:svg="http://www.w3.org/2000/svg"
   xmlns="http://www.w3.org/2000/svg"
   xmlns:sodipodi="http://sodipodi.sourceforge.net/DTD/sodipodi-0.dtd"
   xmlns:inkscape="http://www.inkscape.org/namespaces/inkscape"
   inkscape:version="1.0 (4035a4fb49, 2020-05-01)"
   height="20"
   width="17.103086"
   sodipodi:docname="video_pause.svg"
   id="svg1069"
   xml:space="preserve"
   enable-background="new 0 0 100 100"
   viewBox="0 0 17.103087 20"
   y="0px"
   x="0px"
   version="1.1"><style
     id="style1077"></style><metadata
     id="metadata1075"><rdf:RDF><cc:Work
         rdf:about=""><dc:format>image/svg+xml</dc:format><dc:type
           rdf:resource="http://purl.org/dc/dcmitype/StillImage" /></cc:Work></rdf:RDF></metadata><defs
     id="defs1073" /><sodipodi:namedview
     inkscape:current-layer="svg1069"
     inkscape:window-maximized="0"
     inkscape:window-y="0"
     inkscape:window-x="0"
     inkscape:cy="36.117873"
     inkscape:cx="-15.856236"
     inkscape:zoom="1"
     showgrid="false"
     id="namedview1071"
     inkscape:window-height="1080"
     inkscape:window-width="1920"
     inkscape:pageshadow="2"
     inkscape:pageopacity="0"
     guidetolerance="10"
     gridtolerance="10"
     objecttolerance="10"
     borderopacity="1"
     bordercolor="#666666"
     pagecolor="#ffffff" /><g
     transform="matrix(0.32829941,0,0,0.32829941,-7.8634275,-6.4149705)"
     id="g1063"><path
       id="path1059"
       d="m 41.523,19.54 h -13.28 c -2.371,0 -4.291,1.92 -4.291,4.291 v 52.338 c 0,2.371 1.92,4.291 4.291,4.291 h 13.28 c 2.368,0 4.29,-1.92 4.29,-4.291 V 23.831 c 0,-2.371 -1.921,-4.291 -4.29,-4.291 z" /><path
       id="path1061"
       d="M 71.759,19.54 H 58.478 c -2.37,0 -4.291,1.92 -4.291,4.291 v 52.338 c 0,2.371 1.921,4.291 4.291,4.291 h 13.281 c 2.369,0 4.289,-1.92 4.289,-4.291 V 23.831 c 0,-2.371 -1.92,-4.291 -4.289,-4.291 z" /></g></svg>
