<?xml version="1.0" encoding="UTF-8" standalone="no"?>
<svg
   xmlns:dc="http://purl.org/dc/elements/1.1/"
   xmlns:cc="http://creativecommons.org/ns#"
   xmlns:rdf="http://www.w3.org/1999/02/22-rdf-syntax-ns#"
   xmlns:svg="http://www.w3.org/2000/svg"
   xmlns="http://www.w3.org/2000/svg"
   xmlns:sodipodi="http://sodipodi.sourceforge.net/DTD/sodipodi-0.dtd"
   xmlns:inkscape="http://www.inkscape.org/namespaces/inkscape"
   inkscape:version="1.0 (4035a4fb49, 2020-05-01)"
   height="16"
   width="21.589577"
   sodipodi:docname="video_sound_mute.svg"
   id="svg12"
   xml:space="preserve"
   enable-background="new 0 0 100 100"
   viewBox="0 0 21.589577 16"
   y="0px"
   x="0px"
   version="1.1"><style
     id="style843"></style><metadata
     id="metadata18"><rdf:RDF><cc:Work
         rdf:about=""><dc:format>image/svg+xml</dc:format><dc:type
           rdf:resource="http://purl.org/dc/dcmitype/StillImage" /><dc:title></dc:title></cc:Work></rdf:RDF></metadata><defs
     id="defs16" /><sodipodi:namedview
     inkscape:current-layer="svg12"
     inkscape:window-maximized="0"
     inkscape:window-y="0"
     inkscape:window-x="0"
     inkscape:cy="25.799116"
     inkscape:cx="18.439475"
     inkscape:zoom="1.764"
     showgrid="false"
     id="namedview14"
     inkscape:window-height="1080"
     inkscape:window-width="1920"
     inkscape:pageshadow="2"
     inkscape:pageopacity="0"
     guidetolerance="10"
     gridtolerance="10"
     objecttolerance="10"
     borderopacity="1"
     bordercolor="#666666"
     pagecolor="#ffffff" /><g
     transform="matrix(0.26207383,0,0,0.26207383,-2.3088704,-5.1037572)"
     id="g6"><path
       id="path2"
       d="m 50.979,19.903 c -1.481,-0.717 -3.241,-0.523 -4.53,0.498 L 26.746,35.992 H 13.101 c -2.37,0 -4.291,1.92 -4.291,4.29 v 19.436 c 0,2.369 1.921,4.289 4.291,4.289 h 13.645 l 19.703,15.592 c 0.773,0.611 1.713,0.927 2.664,0.927 0.635,0 1.273,-0.144 1.868,-0.429 1.482,-0.717 2.422,-2.219 2.422,-3.862 V 23.765 C 53.402,22.12 52.461,20.618 50.979,19.903 Z" /><path
       id="path4"
       d="m 89.932,39.101 c -1.676,-1.676 -4.391,-1.676 -6.066,0 l -4.832,4.832 -4.832,-4.832 c -1.676,-1.676 -4.395,-1.676 -6.068,0 -1.676,1.676 -1.676,4.393 0,6.067 L 72.965,50 68.133,54.83 c -1.674,1.679 -1.674,4.394 0,6.067 0.838,0.84 1.938,1.259 3.033,1.259 1.1,0 2.197,-0.42 3.037,-1.259 l 4.83,-4.83 4.83,4.83 c 0.838,0.839 1.938,1.257 3.033,1.257 1.1,0 2.197,-0.418 3.035,-1.257 1.676,-1.674 1.676,-4.391 0,-6.067 L 85.1,50 89.932,45.169 c 1.677,-1.676 1.677,-4.393 0,-6.068 z" /></g></svg>
