<?xml version="1.0" encoding="UTF-8" standalone="no"?>
<svg
   xmlns:dc="http://purl.org/dc/elements/1.1/"
   xmlns:cc="http://creativecommons.org/ns#"
   xmlns:rdf="http://www.w3.org/1999/02/22-rdf-syntax-ns#"
   xmlns:svg="http://www.w3.org/2000/svg"
   xmlns="http://www.w3.org/2000/svg"
   xmlns:sodipodi="http://sodipodi.sourceforge.net/DTD/sodipodi-0.dtd"
   xmlns:inkscape="http://www.inkscape.org/namespaces/inkscape"
   inkscape:version="1.0 (4035a4fb49, 2020-05-01)"
   height="16"
   width="21.584663"
   sodipodi:docname="video_sound_playing.svg"
   id="svg14"
   xml:space="preserve"
   enable-background="new 0 0 100 100"
   viewBox="0 0 21.584663 16"
   y="0px"
   x="0px"
   version="1.1"><style
     id="style845"></style><metadata
     id="metadata20"><rdf:RDF><cc:Work
         rdf:about=""><dc:format>image/svg+xml</dc:format><dc:type
           rdf:resource="http://purl.org/dc/dcmitype/StillImage" /><dc:title></dc:title></cc:Work></rdf:RDF></metadata><defs
     id="defs18" /><sodipodi:namedview
     inkscape:current-layer="svg14"
     inkscape:window-maximized="0"
     inkscape:window-y="0"
     inkscape:window-x="0"
     inkscape:cy="43.025499"
     inkscape:cx="10.072723"
     inkscape:zoom="1"
     showgrid="false"
     id="namedview16"
     inkscape:window-height="1080"
     inkscape:window-width="1920"
     inkscape:pageshadow="2"
     inkscape:pageopacity="0"
     guidetolerance="10"
     gridtolerance="10"
     objecttolerance="10"
     borderopacity="1"
     bordercolor="#666666"
     pagecolor="#ffffff" /><g
     transform="matrix(0.26207383,0,0,0.26207383,-2.3112291,-5.1037572)"
     id="g8"><path
       id="path2"
       d="m 50.989,19.903 c -1.48,-0.717 -3.24,-0.523 -4.529,0.498 L 26.757,35.992 H 13.11 c -2.369,0 -4.291,1.92 -4.291,4.29 v 19.436 c 0,2.369 1.922,4.289 4.291,4.289 H 26.756 L 46.46,79.599 c 0.773,0.611 1.713,0.927 2.662,0.927 0.637,0 1.273,-0.144 1.867,-0.429 1.484,-0.717 2.424,-2.219 2.424,-3.862 V 23.765 C 53.411,22.12 52.47,20.618 50.989,19.903 Z" /><path
       id="path4"
       d="m 69.175,34.81 c -1.676,-1.676 -4.393,-1.676 -6.066,0 -1.676,1.676 -1.676,4.393 0,6.066 5.029,5.03 5.029,13.215 0,18.245 -1.676,1.675 -1.676,4.392 0,6.065 0.836,0.84 1.936,1.259 3.033,1.259 1.1,0 2.195,-0.419 3.033,-1.259 4.059,-4.059 6.293,-9.45 6.293,-15.188 0,-5.737 -2.237,-11.132 -6.293,-15.188 z" /><path
       id="path6"
       d="m 74.231,23.685 c -1.674,1.676 -1.674,4.393 0,6.068 11.164,11.163 11.164,29.327 0,40.49 -1.674,1.675 -1.674,4.393 0,6.066 0.838,0.838 1.936,1.257 3.033,1.257 1.1,0 2.197,-0.419 3.035,-1.257 14.508,-14.508 14.508,-38.119 0,-52.627 -1.675,-1.671 -4.392,-1.671 -6.068,0.003 z" /></g></svg>
